<svg width="180" height="40" viewBox="0 0 180 40" fill="none" xmlns="http://www.w3.org/2000/svg">
  <defs>
    <linearGradient id="neon-blue" x1="0" y1="0" x2="40" y2="40" gradientUnits="userSpaceOnUse">
      <stop offset="0%" stop-color="#06b6d4"/>
      <stop offset="100%" stop-color="#3b82f6"/>
    </linearGradient>
  </defs>

  <!-- 雲の輪郭 -->
  <path d="M12 24C9 24 7 21.5 7 19C7 16 9.5 14.5 11.5 14.5C11 11 14 8 18 8C21.5 8 24 10 25 12.5C26.5 10.5 30 10.5 32 13.5C35 13.5 36.5 16 36.5 18.5C36.5 21.5 34 24 31 24H12Z" 
        stroke="url(#neon-blue)" stroke-width="1.8" stroke-linejoin="round" />
  
  <!-- 鍵穴型スリット -->
  <path d="M22.5 16C22.5 17.1 21.6 18 20.5 18C19.4 18 18.5 17.1 18.5 16C18.5 14.9 19.4 14 20.5 14C21.6 14 22.5 14.9 22.5 16ZM19 18.5L17.5 22.5H23.5L22 18.5H19Z" 
        fill="#38bdf8" />

  <!-- Luminous (光のきらめき) -->
  <path d="M20.5 11V13M20.5 19V21M16.5 16H14.5M26.5 16H24.5" stroke="#fbbf24" stroke-width="1.2" stroke-linecap="round" />

  <!-- 3x3を象徴するドット（右側に浮かぶシークレットコード） -->
  <circle cx="30" cy="18" r="1" fill="#38bdf8" />
  <circle cx="33" cy="18" r="1" fill="#3b82f6" />
  <circle cx="30" cy="21" r="1" fill="#3b82f6" opacity="0.5" />

  <!-- テキスト "CLOUDE" -->
  <text x="50" y="26" font-family="system-ui, -apple-system, sans-serif" font-weight="800" font-size="17" letter-spacing="2.5" fill="#ffffff">
    CLOUDE
  </text>
</svg>
